<svg width="56px" height="56px" viewBox="0 0 56 56" version="1.1"
     xmlns="http://www.w3.org/2000/svg"
     xmlns:xlink="http://www.w3.org/1999/xlink">
    <!-- Generator: Sketch 46.2 (44496) - http://www.bohemiancoding.com/sketch -->
    <desc>Created with Sketch.</desc>
    <defs></defs>
    <g id="Page-2" stroke="none" stroke-width="1" fill="none" fill-rule="evenodd">
        <g id="首页" transform="translate(-1457.000000, -2849.000000)" fill-rule="nonzero"
           fill="#7f8fac">
            <g id="Group-89" transform="translate(0.000000, 2044.000000)">
                <g id="Group-76" transform="translate(0.000000, 745.000000)">
                    <g id="Group-62">
                        <g id="Group-47" transform="translate(409.000000, 60.000000)">
                            <g id="iso27001" transform="translate(1048.000000, 0.000000)">
                                <path
                                    d="M16.9897537,4.99977734 C17.9342199,5.57924467 18.9230414,6.08328395 19.9469905,6.50719152 C19.4117657,7.53933562 18.9504026,8.60804675 18.5663641,9.70530345 L19.6698666,9.70530345 C20.0320476,8.7398065 20.4595382,7.80002482 20.9493802,6.89246113 C22.9824409,7.61380746 25.1145343,8.01835807 27.2708016,8.091909 L27.2708016,9.70405663 L28.7687687,9.70405663 L28.7687687,8.09066218 C30.9250359,8.01711124 33.0571293,7.61256063 35.09019,6.89121431 C35.580032,7.798778 36.0075226,8.73855967 36.3697036,9.70405663 L37.4732061,9.70405663 C37.0879535,8.60669883 36.625338,7.53798541 36.0888348,6.5059447 C37.114028,6.08261707 38.1041068,5.57899206 39.0498165,4.99977734 C40.9682019,6.27151382 42.6534097,7.86320524 44.0318056,9.70530345 L46.0915104,9.70530345 C42.0812009,3.64612234 35.2943785,0.00128058129 28.0222817,0.00128058129 C20.7501849,0.00128058129 13.9633626,3.64612234 9.95305304,9.70530345 L12.0127578,9.70530345 C13.3896597,7.86363156 15.0731522,6.27196504 16.9897537,4.99977734 L16.9897537,4.99977734 Z M37.7615648,4.21427617 C37.0088428,4.63887669 36.2290597,5.01372878 35.4272327,5.33642074 C34.7630401,4.22419236 33.950898,3.20707154 33.0130089,2.31286459 C34.6726719,2.73902411 36.2700663,3.378147 37.7653097,4.21427617 L37.7615648,4.21427617 Z M30.1843476,1.80041859 C31.7459783,2.468718 33.1802819,3.83898118 34.3936353,5.71794984 C32.5781685,6.332038 30.6829967,6.67937561 28.7675204,6.74907603 L28.7675204,1.69817873 C29.2460376,1.71563432 29.7195617,1.74971428 30.1880926,1.80041859 L30.1843476,1.80041859 Z M25.8514777,1.80041859 C26.3191763,1.74971428 26.7918681,1.71563432 27.2695532,1.69817873 L27.2695532,6.74907603 C25.3540788,6.67935802 23.4589096,6.33202087 21.6434383,5.71794984 C22.8567917,3.83898118 24.2948401,2.468718 25.852726,1.80041859 L25.8514777,1.80041859 Z M20.609841,5.33517387 C19.8080139,5.01248193 19.0282309,4.63762985 18.2755088,4.21302935 C19.7680043,3.37759548 21.3624191,2.73848957 23.0190714,2.31161777 C22.0829441,3.2061459 21.2724938,4.22325168 20.609841,5.33517387 L20.609841,5.33517387 Z M44.0467852,33.5396535 C42.6440419,35.4189521 40.9223791,37.038141 38.9599385,38.3237298 C38.0441983,37.767884 37.0872939,37.2827042 36.0975729,36.8724228 C36.6544476,35.797827 37.131746,34.683922 37.525635,33.5396535 L36.4258774,33.5396535 C36.0531577,34.5521549 35.6093213,35.5371043 35.0976799,36.4871532 C33.0631659,35.7644549 30.9293462,35.3590553 28.7712653,35.2852117 L28.7712653,33.688026 L27.2732982,33.688026 L27.2732982,35.2852117 C25.1143758,35.3588003 22.9796947,35.7642037 20.944387,36.4871532 C20.4310397,35.5372432 19.9855334,34.5522907 19.6111962,33.5396535 L18.5114387,33.5396535 C18.9049233,34.6838872 19.3818041,35.7977914 19.9382523,36.8724228 C18.9485294,37.2826998 17.9916246,37.7678798 17.0758868,38.3237298 C15.1161247,37.0374497 13.3970381,35.4182996 11.9965299,33.5396535 L9.93932164,33.5396535 C13.9475123,39.6108058 20.7413504,43.2644491 28.0222817,43.2644491 C35.303213,43.2644491 42.0970511,39.6108058 46.1052418,33.5396535 L44.0467852,33.5396535 Z M18.2205833,39.0169657 C18.9615879,38.5937898 19.729236,38.2189582 20.5187146,37.8948212 C21.1604669,38.9913118 21.9412888,40.0004424 22.841812,40.8971813 C21.2283456,40.4671133 19.6756688,39.8353836 18.2205833,39.0169657 L18.2205833,39.0169657 Z M25.4994554,41.4245892 C24.0339442,40.6877143 22.6920153,39.3286726 21.5460704,37.5145389 C23.3920143,36.8788383 25.3220123,36.5195982 27.2732982,36.4485016 L27.2732982,41.5604934 C26.6749435,41.5422066 26.0836626,41.4964896 25.4994554,41.4233424 L25.4994554,41.4245892 Z M30.5438597,41.4245892 C29.961317,41.4977364 29.370036,41.5451158 28.770017,41.5667275 L28.770017,36.4547357 C30.7208822,36.5259549 32.6504506,36.8851933 34.4959964,37.520773 C33.3512998,39.3286725 32.009371,40.6877143 30.5438597,41.4233424 L30.5438597,41.4245892 Z M35.5246005,37.903549 C36.3140792,38.227686 37.0817273,38.6025176 37.8227318,39.0256935 C36.3687387,39.8460781 34.8169004,40.4799024 33.2039997,40.9121432 C34.1040745,40.0133257 34.8840691,39.0020845 35.5246005,37.903549 L35.5246005,37.903549 Z M14.1236432,27.1396892 L10.989147,27.1396892 L10.989147,16.0840718 L14.1236432,16.0840718 L14.1236432,12.4682727 L3.34701789,12.4682727 L3.34701789,16.0840718 L6.30050977,16.0840718 L6.30050977,27.1396892 L3.34701789,27.1396892 L3.34701789,31.2542192 L14.1236432,31.2542192 L14.1236432,27.1396892 Z M24.7966591,27.2905553 C21.3850389,27.2905553 19.9070447,24.1173799 19.9070447,24.1173799 L16.0372963,24.1173799 L16.0372963,31.2118271 L19.9070447,31.2118271 L19.9070447,28.8017099 C19.9070447,28.8017099 21.7170883,31.2118271 25.7740827,31.2118271 C30.1743612,31.2118271 32.7234019,28.5311484 32.7234019,25.0612281 C32.7234019,21.2372089 28.5003829,19.2846774 24.8178804,19.3258227 C21.2402355,19.3657212 20.7821072,17.4917398 20.7821072,16.9107182 C20.7821071,16.3296967 21.2027863,15.2112927 23.4809446,15.2112927 C26.003771,15.2112927 28.0372614,18.4530436 28.0372614,18.4530436 L31.9070098,18.4530436 L31.9070098,12.3435899 L28.0372614,12.3435899 L28.0372614,13.7500111 C27.7364197,13.4008995 26.4469196,12.1565659 23.3348928,12.1565659 C16.7975146,12.1565659 16.032303,15.6327203 16.032303,17.7460925 C16.032303,20.9616601 20.0268821,23.2221579 23.7568202,23.2533286 C26.3932424,23.2757715 27.9698528,23.9702543 27.9698529,25.2270561 C27.9748461,25.8093245 27.1896616,27.2905553 24.7966591,27.2905553 Z M33.0929005,21.6848199 C33.0929005,26.946431 37.4619713,31.2130739 42.8509081,31.2130739 C48.2398449,31.2130739 52.6089158,26.9476778 52.6089158,21.6848199 C52.6089159,16.421962 48.239845,12.1565659 42.8509081,12.1565659 C37.4619713,12.1565658 33.0929005,16.421962 33.0929005,21.6848199 Z M47.1812815,21.5913078 C47.1862747,24.7470276 45.3462718,27.3055172 43.0793482,27.3055172 C40.8124246,27.3055172 38.9599385,24.7470276 38.9599385,21.5913078 C38.9599385,18.435588 40.7999415,15.8770985 43.07061,15.8770985 C45.3412785,15.8770985 47.1862747,18.4343412 47.1862747,21.5913078 L47.1812815,21.5913078 Z M0.012792724,46.3370887 L1.29854786,46.3370887 L1.29854786,55.7219575 L0.012792724,55.7219575 L0.012792724,46.3370887 Z M9.43625436,51.1859999 C9.10337276,50.9366345 8.6281843,50.7388045 8.01068897,50.5925101 L6.73367193,50.2920248 C5.87400525,50.0875451 5.32267013,49.9171454 5.07966657,49.7808256 C4.71413635,49.5799349 4.49697183,49.1868814 4.5216738,48.7708955 C4.52083752,48.3554718 4.69154075,47.9580871 4.99353345,47.6724406 C5.30810655,47.357409 5.82532131,47.1998931 6.54517775,47.1998931 C7.43646819,47.1998931 8.068111,47.4446869 8.44010618,47.9342744 C8.64066735,48.2027579 8.77132337,48.5880275 8.83207425,49.0900833 L10.0279514,49.0900833 C10.0279514,48.0469044 9.69298927,47.2875866 9.02306509,46.8121299 C8.35314091,46.3366731 7.53882933,46.0993603 6.58013034,46.1001915 C5.53821098,46.1001915 4.73305364,46.370753 4.16465832,46.911876 C3.59713276,47.4508051 3.28693942,48.2060907 3.31206535,48.9878435 C3.31206535,49.7675261 3.60125622,50.3531193 4.17963797,50.7446231 C4.51251956,50.9707144 5.08257927,51.178519 5.88981711,51.3680367 L7.12813666,51.6523133 C7.79389984,51.8102447 8.28531628,51.9956064 8.60238598,52.2083983 C8.91945567,52.4211901 9.07424561,52.7852637 9.06675578,53.300619 C9.06675578,53.9822179 8.70100213,54.4547654 7.96949483,54.7182616 C7.56556945,54.8589007 7.14018111,54.9280974 6.71245074,54.9227412 C5.68551104,54.9227412 4.96898342,54.6118656 4.56286789,53.9901144 C4.33147815,53.5965613 4.20631211,53.1497624 4.19961086,52.6934141 L2.99998885,52.6934141 C2.98750579,53.7066691 3.3037433,54.5096258 3.94870139,55.1022843 C4.59365948,55.6949429 5.48703044,55.9929346 6.62881427,55.9962595 C7.53210418,56.0154418 8.42291878,55.7831805 9.20157283,55.3254664 C9.93973776,54.8782711 10.3088202,54.135162 10.3088202,53.0961393 C10.3054914,52.2615962 10.0146361,51.6248831 9.43625436,51.1859999 L9.43625436,51.1859999 Z M16.1558853,46.0814891 C14.5697046,46.0814891 13.3717469,46.6608481 12.5620124,47.8195663 C11.9312018,48.7222692 11.6157965,49.8082558 11.6157965,51.077526 C11.6157965,52.4831159 11.9844629,53.6468213 12.7217956,54.5686423 C13.5490064,55.5228808 14.6853809,56 16.1309192,56 C17.6788186,56 18.8705347,55.4547209 19.7060675,54.3641626 C20.4184341,53.4356919 20.7746174,52.2719865 20.7746173,50.8730463 C20.7746173,49.5780084 20.463373,48.5152959 19.8408845,47.684909 C19.0428009,46.6159624 17.8144678,46.0814891 16.1558853,46.0814891 Z M18.7174091,53.6597052 C18.2180868,54.4634932 17.4066879,54.8653872 16.2832125,54.8653872 C15.1023151,54.8653872 14.2484738,54.508379 13.7216887,53.7943626 C13.1949036,53.0803462 12.9315111,52.203411 12.931511,51.163557 C12.931511,49.8635318 13.2385943,48.8797851 13.8527608,48.2123169 C14.4669274,47.5448486 15.2600177,47.2123614 16.232032,47.2148551 C17.2306768,47.2148551 18.0212705,47.5514984 18.6038133,48.2247852 C19.186356,48.8980719 19.4751308,49.7866441 19.4701376,50.8905019 C19.4881232,51.8666938 19.2270016,52.8277631 18.7174091,53.660952 L18.7174091,53.6597052 Z M23.7930211,53.4028588 C24.0974111,53.1496698 24.4275167,52.9290242 24.7779345,52.744534 L25.6517487,52.2595182 C26.4232018,51.8297784 26.958309,51.4636268 27.2570702,51.1610634 C27.7620816,50.667743 28.0419226,49.9888052 28.0310199,49.2833415 C28.0296151,48.5851431 27.7710094,47.9118783 27.3045058,47.3919045 C26.8201631,46.825845 26.0537032,46.5428152 25.0051262,46.5428152 C23.7426728,46.5428152 22.862201,46.9858545 22.3637108,47.871933 C22.0824259,48.3706639 21.9351258,49.0202609 21.9218105,49.820724 L23.0927215,49.820724 C23.1093656,49.253002 23.1988275,48.8087159 23.3611073,48.4878657 C23.6640295,47.8902198 24.2099553,47.5913969 24.9988847,47.5913969 C25.5314952,47.5913969 25.9579997,47.7480815 26.2783983,48.0614508 C26.5987968,48.37482 26.75858,48.7983257 26.7577478,49.3319678 C26.7563833,49.7916666 26.5669776,50.2308377 26.2334593,50.5476244 C25.8839272,50.867981 25.4960929,51.1439594 25.0787763,51.3692835 L23.8554364,52.0737409 C23.0323867,52.5508601 22.478971,53.0811774 22.1951895,53.6646925 C21.8961963,54.3109376 21.7298124,55.0104484 21.7058536,55.7219575 L27.9935707,55.7219575 L27.9935707,54.635971 L22.9816222,54.635971 C23.1155036,54.149923 23.3994345,53.718423 23.7930211,53.4028588 L23.7930211,53.4028588 Z M29.055879,47.8781671 L34.1215046,47.8781671 C33.4234531,48.6916237 32.8063742,49.571047 32.279005,50.5039854 C31.2895145,52.2329192 30.6499658,53.9705808 30.3603587,55.7169702 L31.6336308,55.7169702 C31.830031,54.7801873 31.9898141,54.1010821 32.1129803,53.6796544 C32.3394794,52.9335795 32.6215517,52.2054779 32.9568352,51.5014472 C33.3213008,50.703009 33.7548608,49.9378771 34.2525767,49.214766 C34.5988059,48.6848028 34.9914851,48.1866075 35.4259844,47.7260542 L35.4259844,46.7285924 L29.059624,46.7285924 L29.055879,47.8781671 Z M39.4043354,46.5739858 C38.0869565,46.5739858 37.1765254,47.268053 36.673042,48.6561874 C36.4042401,49.4042837 36.2698392,50.2965965 36.2698392,51.3331255 C36.2698392,52.6747117 36.493702,53.7436582 36.9414278,54.5399653 C37.4790315,55.4942037 38.2975041,55.971323 39.3968456,55.971323 C40.6160244,55.971323 41.4944157,55.3894702 42.0320195,54.2257648 C42.4031824,53.4120022 42.5887639,52.3833697 42.5887639,51.1398673 C42.5887639,49.828205 42.3840417,48.7954164 41.9745974,48.0415015 C41.44698,47.0631577 40.5902261,46.5739858 39.4043354,46.5739858 L39.4043354,46.5739858 Z M40.8174177,54.1310059 C40.4628989,54.6588295 39.9868782,54.9227412 39.3893558,54.9227412 C38.6461976,54.9227412 38.1210769,54.4905078 37.8139936,53.6260409 C37.6134325,53.0599813 37.5131519,52.3118849 37.5131519,51.3817518 C37.5131519,50.1424055 37.6700223,49.2043758 37.9837632,48.5676627 C38.2975041,47.9309496 38.7939138,47.612593 39.4729922,47.6125929 C40.2119894,47.6125929 40.7113117,47.9479895 40.9709594,48.6187826 C41.230607,49.2895757 41.3587665,50.1444836 41.3554376,51.1835063 C41.3512766,52.6206825 41.1719366,53.6031824 40.8174177,54.1310059 L40.8174177,54.1310059 Z M46.689449,46.5739858 C45.3720701,46.5739858 44.461639,47.268053 43.9581555,48.6561874 C43.6893536,49.4042837 43.5549527,50.2965965 43.5549527,51.3331255 C43.5549527,52.6747117 43.7788156,53.7436582 44.2265413,54.5399653 C44.7641451,55.4942037 45.5826177,55.971323 46.6819591,55.971323 C47.9011379,55.971323 48.7795292,55.3894702 49.317133,54.2257648 C49.688296,53.4120022 49.8738775,52.3833697 49.8738775,51.1398673 C49.8738775,49.828205 49.6691553,48.7954164 49.259711,48.0415015 C48.7320936,47.0631577 47.8753396,46.5739858 46.689449,46.5739858 L46.689449,46.5739858 Z M48.1025313,54.1310059 C47.7480124,54.6588295 47.2715757,54.9227412 46.673221,54.9227412 C45.9300628,54.9227412 45.4049421,54.4905078 45.0978589,53.6260409 C44.8972977,53.0599813 44.7970171,52.3118849 44.7970172,51.3817518 C44.7970172,50.1424055 44.9538876,49.2043758 45.2676285,48.5676627 C45.5813694,47.9309496 46.0781952,47.612593 46.7581058,47.6125929 C47.4971029,47.6125929 47.9964253,47.9479895 48.2560729,48.6187826 C48.5157205,49.2895757 48.6438799,50.1444836 48.6405512,51.1835063 C48.6363901,52.6206825 48.4570502,53.6031824 48.1025313,54.1310059 L48.1025313,54.1310059 Z M54.1605601,46.6126375 C53.9982803,47.3200041 53.7531963,47.7684463 53.4253079,47.9579641 C53.0974195,48.1474818 52.5173734,48.2825548 51.6851694,48.363183 L51.6851694,49.2496771 L53.8397455,49.2496771 L53.8397455,55.733179 L55.0630853,55.733179 L55.0630853,46.6126375 L54.1605601,46.6126375 Z"
                                    id="Shape"></path>
                            </g>
                        </g>
                    </g>
                </g>
            </g>
        </g>
    </g>
</svg>
