<svg width="123px" height="32px" viewBox="0 0 123 32" version="1.1"
     xmlns="http://www.w3.org/2000/svg" xmlns:xlink="http://www.w3.org/1999/xlink">
    <!-- Generator: Sketch 46.2 (44496) - http://www.bohemiancoding.com/sketch -->
    <desc>Created with Sketch.</desc>
    <defs></defs>
    <g id="Page-2" stroke="none" stroke-width="1" fill="none" fill-rule="evenodd">
        <g id="首页" transform="translate(-412.000000, -2849.000000)" fill-rule="nonzero"
           fill="#bfc7d5">
            <g id="Group-89" transform="translate(0.000000, 2044.000000)">
                <g id="Group-76" transform="translate(0.000000, 745.000000)">
                    <g id="资源-2" transform="translate(412.000000, 60.000000)">
                        <g id="图层_2">
                            <g>
                                <g id="图层_3">
                                    <path
                                        d="M31.6150488,14.3648129 L21.6550793,14.3648129 C20.9019994,11.4405244 18.0976254,9.53386056 15.1093148,9.91441774 C12.1210042,10.2949749 9.88110424,12.84402 9.88110424,15.8642122 C9.88110424,18.8844044 12.1210042,21.4334494 15.1093148,21.8140066 C18.0976254,22.1945638 20.9019994,20.2879 21.6550793,17.3636115 L28.5642473,17.3636115 C27.9183491,22.9575437 23.7110305,27.4760129 18.1891623,28.5059818 C12.6672941,29.5359508 7.12072063,26.8368307 4.51152664,21.850056 C1.90233264,16.8632813 2.83999557,10.7537048 6.82376715,6.78407656 C10.8075387,2.81444831 16.9068561,1.91202745 21.864448,4.55874162 C21.0628259,6.79929215 21.9984638,9.29218007 24.0744616,10.4470414 C26.1504595,11.6019028 28.7552767,11.0785423 30.2271429,9.21084326 C31.6990091,7.34314425 31.6043467,4.68128735 30.0035466,2.92343204 C28.4027465,1.16557674 25.7673672,0.829546263 23.7786764,2.12971478 C17.5651353,-1.46705024 9.71675908,-0.431103891 4.64340839,4.6554743 C-0.429942301,9.74205249 -1.46323672,17.6109335 2.12411459,23.8407355 C5.71146589,30.0705374 13.0249634,33.1078705 19.9552851,31.2461122 C26.8856069,29.3843539 31.7046897,23.0877302 31.7047782,15.8942002 C31.7047782,15.2944405 31.6748684,14.7846447 31.6150488,14.3648129 Z M15.8525745,18.8630107 C14.2007009,18.8630107 12.8615927,17.5204029 12.8615927,15.8642122 C12.8615927,14.2080215 14.2007009,12.8654136 15.8525745,12.8654136 C17.5044482,12.8654136 18.8435564,14.2080215 18.8435564,15.8642122 C18.8435564,17.5204029 17.5044482,18.8630107 15.8525745,18.8630107 Z M26.4107404,4.40880169 C27.1365839,4.40880169 27.7909562,4.84718198 28.0687245,5.51952651 C28.3464928,6.19187104 28.1929554,6.96577307 27.6797065,7.4803633 C27.1664576,7.99495353 26.3945729,8.14889221 25.7239809,7.87039799 C25.0533889,7.59190377 24.6161513,6.9358213 24.6161513,6.20808082 C24.6161513,5.2143664 25.4196162,4.40880169 26.4107404,4.40880169 Z"
                                        id="Shape"></path>
                                    <path
                                        d="M64.1245947,23.1447973 C64.1614158,23.2413486 64.1614158,23.3481258 64.1245947,23.4446771 C64.0168734,23.4739866 63.9033079,23.4739866 63.7955867,23.4446771 C62.4792588,23.647137 61.1493044,23.7473949 59.8175808,23.744557 C59.174919,23.7534905 58.5331598,23.6931683 57.9033525,23.5646291 C57.3712343,23.4462912 56.8646766,23.2329809 56.4078616,22.9348814 C55.9301371,22.6153546 55.5640913,22.1539801 55.3610179,21.61541 C55.1040505,20.9255244 54.9821863,20.1924281 55.0021001,19.456275 L55.0021001,12.2891465 C54.9829326,11.5530453 55.1047732,10.8200907 55.3610179,10.1300115 C55.5623065,9.59042669 55.9287495,9.1285515 56.4078616,8.81054016 C56.8646766,8.51244059 57.3712343,8.29913033 57.9033525,8.18079246 C58.5331598,8.05225322 59.174919,7.99193107 59.8175808,8.00086454 C61.1493044,7.99802666 62.4792588,8.09828457 63.7955867,8.3007444 C63.9033079,8.27143487 64.0168734,8.27143487 64.1245947,8.3007444 C64.1614158,8.39729576 64.1614158,8.50407289 64.1245947,8.60062426 L64.1245947,9.95008361 C64.1245947,10.1819503 63.9371195,10.3699154 63.7058572,10.3699154 L59.458663,10.3699154 C58.9951304,10.3213747 58.5316131,10.461874 58.1725408,10.7597592 C57.8867052,11.1705332 57.7591796,11.6713137 57.813623,12.1691945 L57.813623,14.4182935 L63.4665787,14.4182935 C63.697841,14.4182935 63.8853161,14.6062586 63.8853161,14.8381253 L63.8853161,16.3375245 C63.8853161,16.5693912 63.697841,16.7573563 63.4665787,16.7573563 L57.813623,16.7573563 L57.813623,19.456275 C57.7113906,20.0129828 57.841103,20.5873766 58.1725408,21.0456383 C58.5316131,21.3435234 58.9951304,21.4840228 59.458663,21.4354821 L63.7058572,21.4354821 C63.9371195,21.4354821 64.1245947,21.6234472 64.1245947,21.8553139 L64.1245947,23.1447973 Z"
                                        id="Shape"></path>
                                    <path
                                        d="M76.1245947,23.1447973 C76.1614158,23.2413486 76.1614158,23.3481258 76.1245947,23.4446771 C76.0168734,23.4739866 75.9033079,23.4739866 75.7955867,23.4446771 C74.4792723,23.6472558 73.1493087,23.7475144 71.8175808,23.744557 C71.174919,23.7534905 70.5331598,23.6931683 69.9033525,23.5646291 C69.371431,23.4456718 68.86498,23.2324065 68.4078616,22.9348814 C67.9301371,22.6153546 67.5640913,22.1539801 67.3610179,21.61541 C67.1040505,20.9255244 66.9821863,20.1924281 67.0021001,19.456275 L67.0021001,12.2891465 C66.9821863,11.5529934 67.1040505,10.8198971 67.3610179,10.1300115 C67.5640913,9.59144138 67.9301371,9.13006692 68.4078616,8.81054016 C68.86498,8.51301506 69.371431,8.29974974 69.9033525,8.18079246 C70.5331598,8.05225322 71.174919,7.99193107 71.8175808,8.00086454 C73.1493044,7.99802666 74.4792588,8.09828457 75.7955867,8.3007444 C75.9033079,8.27143487 76.0168734,8.27143487 76.1245947,8.3007444 C76.1614158,8.39729576 76.1614158,8.50407289 76.1245947,8.60062426 L76.1245947,9.95008361 C76.1245947,10.0614299 76.0804778,10.1682158 76.0019493,10.2469495 C75.9234208,10.3256833 75.8169133,10.3699154 75.7058572,10.3699154 L71.458663,10.3699154 C70.9951304,10.3213747 70.5316131,10.461874 70.1725408,10.7597592 C69.8867052,11.1705332 69.7591796,11.6713137 69.813623,12.1691945 L69.813623,14.4182935 L75.4665787,14.4182935 C75.697841,14.4182935 75.8853161,14.6062586 75.8853161,14.8381253 L75.8853161,16.3375245 C75.8853161,16.5693912 75.697841,16.7573563 75.4665787,16.7573563 L69.813623,16.7573563 L69.813623,19.456275 C69.7591796,19.9541558 69.8867052,20.4549364 70.1725408,20.8657104 C70.5316131,21.1635955 70.9951304,21.3040949 71.458663,21.2555542 L75.7058572,21.2555542 C75.9371195,21.2555542 76.1245947,21.4435193 76.1245947,21.675386 L76.1245947,23.1447973 Z"
                                        id="Shape"></path>
                                    <path
                                        d="M88.3775874,9.43516095 L84.3098521,9.43516095 L84.3098521,22.9597424 C84.3440636,23.0567599 84.3440636,23.1626049 84.3098521,23.2596223 C84.2242283,23.2981097 84.1262876,23.2981097 84.0406638,23.2596223 L82.7844514,23.2596223 C82.6988275,23.2981097 82.6008869,23.2981097 82.515263,23.2596223 C82.4810516,23.1626049 82.4810516,23.0567599 82.515263,22.9597424 L82.515263,9.43516095 L78.3278885,9.43516095 C78.2304438,9.46522583 78.1262349,9.46522583 78.0287903,9.43516095 C77.9913934,9.35958803 77.9913934,9.27082998 78.0287903,9.19525706 L78.0287903,8.29561749 C77.9904032,8.20976985 77.9904032,8.11157327 78.0287903,8.02572562 C78.1255548,7.99142479 78.231124,7.99142479 78.3278885,8.02572562 L88.3775874,8.02572562 C88.6368058,8.02572562 88.766415,8.14567757 88.766415,8.38558145 L88.766415,9.28522102 C88.766415,9.38518097 88.6368058,9.43516095 88.3775874,9.43516095 Z"
                                        id="Shape"></path>
                                    <path
                                        d="M99.6926403,23.5169315 C99.644071,23.5329514 99.5916605,23.5329514 99.5430912,23.5169315 L98.7355261,23.5169315 L95.4454461,23.5169315 C94.2693064,23.6005291 93.099466,23.2835298 92.1254563,22.6172919 C91.3134973,21.8433181 90.9048392,20.7359503 91.018793,19.6184934 L91.018793,11.9115811 C90.9048392,10.7941242 91.3134973,9.68675637 92.1254563,8.91278253 C93.099466,8.2465447 94.2693064,7.92954534 95.4454461,8.01314296 L98.8252556,8.01314296 L99.6627305,8.01314296 C99.7112998,7.99712306 99.7637102,7.99712306 99.8122796,8.01314296 C99.8274757,8.07215133 99.8274757,8.13406251 99.8122796,8.19307088 L99.8122796,9.24265037 C99.8122796,9.42257829 99.8122796,9.48255426 99.573001,9.48255426 L95.5052657,9.48255426 C95.0579515,9.43351553 94.6066381,9.43351553 94.1593239,9.48255426 C93.8694375,9.53879172 93.6004732,9.67362534 93.3816686,9.87239807 C93.2007766,10.05278 93.076079,10.2819897 93.0227508,10.5321338 C92.8938031,10.9802266 92.8332972,11.4453179 92.8432919,11.9115811 L92.8432919,14.9103796 L99.243993,14.9103796 C99.3397044,14.8703957 99.4473798,14.8703957 99.5430912,14.9103796 C99.582971,15.0063412 99.582971,15.1142979 99.5430912,15.2102595 L99.5430912,15.9899471 C99.582971,16.0859087 99.582971,16.1938654 99.5430912,16.289827 C99.4473798,16.329811 99.3397044,16.329811 99.243993,16.289827 L92.8432919,16.289827 L92.8432919,19.8284093 C92.8062417,20.1672581 92.8062417,20.509152 92.8432919,20.8480008 C92.8910764,21.1088492 93.0161533,21.3492065 93.2022097,21.5377245 C93.4210143,21.7364972 93.6899786,21.8713308 93.979865,21.9275683 C94.4271792,21.976607 94.8784926,21.976607 95.3258068,21.9275683 L99.3636323,21.9275683 C99.5131814,21.9275683 99.6029108,21.9275683 99.6029108,22.1674722 L99.6029108,23.2470396 C99.6685253,23.3208277 99.7009744,23.4184295 99.6926403,23.5169315 L99.6926403,23.5169315 Z"
                                        id="Shape"></path>
                                    <path
                                        d="M110.334642,19.5574768 C110.316569,20.016125 110.236064,20.4701454 110.095363,20.9069362 C109.937625,21.4150068 109.660697,21.8777585 109.287798,22.2563955 C108.83744,22.6908692 108.29579,23.0187575 107.702578,23.216011 C106.884682,23.4952125 106.023984,23.6271928 105.160243,23.6058549 C104.512693,23.6417948 103.863656,23.6417948 103.216105,23.6058549 L101.690704,23.395939 C101.583434,23.4284646 101.468967,23.4284646 101.361696,23.395939 C101.338423,23.3176732 101.338423,23.2343008 101.361696,23.1560351 L101.361696,22.2264075 C101.328403,22.149923 101.328403,22.0629881 101.361696,21.9865036 C101.439473,21.9612864 101.523198,21.9612864 101.600975,21.9865036 L101.600975,21.9865036 L102.40854,21.9865036 L105.040604,21.9865036 C105.56482,21.9983759 106.08817,21.9378315 106.595915,21.8065757 C106.949643,21.7122756 107.27708,21.5378704 107.553029,21.29678 C107.788941,21.0870894 107.964516,20.8178612 108.061496,20.5170923 C108.1142,20.1792825 108.1142,19.8353107 108.061496,19.4975008 C108.106053,19.2596767 108.106053,19.0156133 108.061496,18.7777892 C107.962968,18.5431724 107.820868,18.3294655 107.642758,18.1480415 C107.48035,17.9240558 107.300316,17.7134671 107.104382,17.5182938 L105.907989,16.7386062 L103.874121,15.5090988 C103.062851,15.0439383 102.334959,14.4459122 101.720614,13.7398076 C101.233435,13.1282682 100.979003,12.3629755 101.002779,11.5806726 C100.959275,10.5382411 101.428763,9.54077315 102.258991,8.91174193 C103.377428,8.2460445 104.669555,7.93261624 105.967809,8.01210236 L106.924923,8.01210236 L107.941857,8.01210236 L108.869061,8.01210236 L109.586897,8.01210236 C109.826175,8.01210236 109.945814,8.16204229 109.945814,8.37195819 L109.945814,9.27159775 C109.945814,9.49150965 109.826175,9.6014656 109.586897,9.6014656 L109.586897,9.6014656 L107.911947,9.6014656 L105.997718,9.6014656 C105.187637,9.54436283 104.37602,9.6885697 103.634843,10.0212974 C103.123224,10.3653289 102.846196,10.9671247 102.917007,11.5806726 C102.868525,11.8080112 102.868525,12.0430577 102.917007,12.2703963 C103.022018,12.4924652 103.163576,12.6952198 103.335745,12.870156 C103.552781,13.0954122 103.793456,13.2964989 104.05358,13.4699157 L105.070514,14.1296514 L106.984742,15.2691949 C107.518018,15.5813531 108.027841,15.9321461 108.510143,16.3187744 C108.885258,16.6203655 109.226272,16.9622709 109.527077,17.3383659 C109.780347,17.6494875 109.973114,18.0055127 110.095363,18.3879454 C110.233196,18.7635446 110.313859,19.1578045 110.334642,19.5574768 Z"
                                        id="Shape"></path>
                                    <path
                                        d="M122.347678,9.43516095 L118.279942,9.43516095 L118.279942,22.9597424 C118.314154,23.0567599 118.314154,23.1626049 118.279942,23.2596223 C118.194318,23.2981097 118.096378,23.2981097 118.010754,23.2596223 L116.754542,23.2596223 C116.668918,23.2981097 116.570977,23.2981097 116.485353,23.2596223 C116.451142,23.1626049 116.451142,23.0567599 116.485353,22.9597424 L116.485353,9.43516095 L112.327888,9.43516095 C112.230444,9.46522583 112.126235,9.46522583 112.02879,9.43516095 C111.991393,9.35958803 111.991393,9.27082998 112.02879,9.19525706 L112.02879,8.29561749 C111.990403,8.20976985 111.990403,8.11157327 112.02879,8.02572562 C112.125555,7.99142479 112.231124,7.99142479 112.327888,8.02572562 L122.377587,8.02572562 C122.646776,8.02572562 122.766415,8.02572562 122.766415,8.38558145 L122.766415,9.28522102 C122.766415,9.34519699 122.616866,9.43516095 122.347678,9.43516095 Z"
                                        id="Shape"></path>
                                    <path
                                        d="M44.6801246,11.2704951 C45.2841595,10.6325668 46.137086,10.2926972 47.0130904,10.3408676 C48.2334873,10.311123 49.4337476,10.6564457 50.4527195,11.3304711 C50.5987266,11.4569741 50.8151794,11.4569741 50.9611864,11.3304711 L51.7388417,10.2509036 C51.7388417,10.0709757 51.9183006,9.86105981 51.7388417,9.6811319 C50.2963296,8.55585035 48.5113746,7.9628402 46.6840824,8.0018047 C46.0026287,8.00151194 45.3257123,8.11293791 44.6801246,8.33167255 C44.027557,8.56478825 43.4203353,8.90977981 42.8855355,9.35126406 C42.2620847,9.89110604 41.7881795,10.5831632 41.5096839,11.3604591 C41.156871,12.31998 40.984471,13.3367475 41.001217,14.3592576 L41.001217,17.3580562 C40.9863693,18.2311943 41.1074644,19.1013105 41.3601348,19.937023 C41.5594381,20.6025854 41.8843592,21.223585 42.317249,21.7662901 C43.0601452,22.6477695 44.0500957,23.2850831 45.1586817,23.5955572 C45.7187337,23.7176239 46.2904141,23.7779581 46.8635413,23.7754851 C48.3475066,23.8299583 49.8233004,23.5319731 51.1705552,22.9058335 C51.4111196,22.7894101 51.562714,22.5438868 51.5593828,22.2760858 L51.5593828,14.8690534 C51.5992626,14.7730918 51.5992626,14.6651351 51.5593828,14.5691735 C51.4636714,14.5291896 51.355996,14.5291896 51.2602846,14.5691735 L46.923361,14.5691735 C46.6920987,14.5691735 46.5046235,14.7571386 46.5046235,14.9890053 L46.5046235,16.4884046 C46.5046235,16.7202713 46.6920987,16.9082364 46.923361,16.9082364 L48.6581304,16.9082364 L48.6581304,20.8666505 C48.0995678,21.055602 47.5127694,21.1468949 46.923361,21.1365424 C46.0871878,21.1741285 45.2735639,20.8587051 44.6801246,20.2668908 C44.071377,19.3918305 43.7858142,18.3314264 43.8725595,17.2680922 L43.8725595,14.2692937 C43.7980141,13.2071114 44.0824972,12.1507165 44.6801246,11.2704951 L44.6801246,11.2704951 Z"
                                        id="Shape"></path>
                                </g>
                            </g>
                        </g>
                    </g>
                </g>
            </g>
        </g>
    </g>
</svg>
