<?xml version="1.0" encoding="UTF-8"?>
<svg width="167px" height="36px" viewBox="0 0 167 36" version="1.1" xmlns="http://www.w3.org/2000/svg" xmlns:xlink="http://www.w3.org/1999/xlink">
    <!-- Generator: Sketch 46.2 (44496) - http://www.bohemiancoding.com/sketch -->
    <title>Group 77</title>
    <desc>Created with Sketch.</desc>
    <defs></defs>
    <g id="Page-2" stroke="none" stroke-width="1" fill="none" fill-rule="evenodd">
        <g id="首页-copy-3" transform="translate(-410.000000, -22.000000)">
            <g id="Group-82">
                <g id="Group-63">
                    <g id="Group-77" transform="translate(410.000000, 20.000000)">
                        <g id="资源-2" transform="translate(0.000000, 2.000000)" fill-rule="nonzero">
                            <g id="图层_2">
                                <g>
                                    <g id="图层_3">
                                        <path d="M34.9035888,15.8639 L23.9076013,15.8639 C23.0761874,12.6354323 19.9801075,10.5304407 16.6809583,10.9505828 C13.3818091,11.3707248 10.9089188,14.184917 10.9089188,17.519264 C10.9089188,20.8536111 13.3818091,23.6678033 16.6809583,24.0879453 C19.9801075,24.5080873 23.0761874,22.4030958 23.9076013,19.1746281 L31.5354485,19.1746281 C30.8223651,25.350431 26.1774089,30.3389032 20.0811659,31.4760076 C13.984923,32.6131121 7.86140507,29.6332344 4.98080745,24.1277445 C2.10020983,18.6222545 3.13540675,11.877171 7.53356302,7.49462919 C11.9317193,3.11208742 18.6654766,2.11579838 24.1387482,5.03781895 C23.2537428,7.51142748 24.286704,10.2636211 26.5786434,11.538609 C28.8705828,12.8135969 31.7463484,12.2357974 33.3713154,10.1738238 C34.9962825,8.11185009 34.8917735,5.17311166 33.1244611,3.23240744 C31.3571486,1.29170321 28.4476419,0.92071946 26.2520911,2.35612915 C19.3922288,-1.61476484 10.7274787,-0.471061235 5.1264073,5.14461359 C-0.474664119,10.7602884 -1.61543995,19.4476762 2.34506113,26.3254908 C6.3055622,33.2033054 14.3797965,36.5565764 22.0309977,34.5011614 C29.6821989,32.4457463 35.002554,25.4941593 35.0026517,17.5523713 C35.0026517,16.8902257 34.9696307,16.3274019 34.9035888,15.8639 Z M17.5015306,20.8299922 C15.677832,20.8299922 14.1994322,19.3477287 14.1994322,17.519264 C14.1994322,15.6907994 15.677832,14.2085359 17.5015306,14.2085359 C19.3252291,14.2085359 20.8036289,15.6907994 20.8036289,17.519264 C20.8036289,19.3477287 19.3252291,20.8299922 17.5015306,20.8299922 Z M29.1579377,4.87228254 C29.9592821,4.87228254 30.6817211,5.35626235 30.9883823,6.09854294 C31.2950436,6.84082353 31.1255354,7.69522545 30.5588993,8.26334242 C29.9922632,8.83145938 29.1400884,9.00141049 28.3997427,8.6939478 C27.6593969,8.38648512 27.1766787,7.66215815 27.1766787,6.85871942 C27.1766787,5.76164063 28.0637185,4.87228254 29.1579377,4.87228254 Z" id="Shape" fill="#347EFF"></path>
                                        <path d="M69.1179322,17.2317181 C69.1547533,17.3282694 69.1547533,17.4350466 69.1179322,17.5315979 C69.010211,17.5609074 68.8966455,17.5609074 68.7889242,17.5315979 C67.4725964,17.7340578 66.142642,17.8343157 64.8109184,17.8314778 C64.1682566,17.8404113 63.5264974,17.7800891 62.89669,17.6515499 C62.3645719,17.533212 61.8580142,17.3199017 61.4011991,17.0218022 C60.9234747,16.7022754 60.5574289,16.2409009 60.3543555,15.7023308 C60.0973881,15.0124452 59.9755239,14.2793489 59.9954377,13.5431958 L59.9954377,6.37606728 C59.9762701,5.63996611 60.0981108,4.90701149 60.3543555,4.21693232 C60.555644,3.67734748 60.9220871,3.21547229 61.4011991,2.89746095 C61.8580142,2.59936139 62.3645719,2.38605113 62.89669,2.26771326 C63.5264974,2.13917402 64.1682566,2.07885187 64.8109184,2.08778534 C66.142642,2.08494746 67.4725964,2.18520537 68.7889242,2.3876652 C68.8966455,2.35835567 69.010211,2.35835567 69.1179322,2.3876652 C69.1547533,2.48421656 69.1547533,2.59099369 69.1179322,2.68754505 L69.1179322,4.03700441 C69.1179322,4.2688711 68.9304571,4.4568362 68.6991948,4.4568362 L64.4520006,4.4568362 C63.9884679,4.40829548 63.5249506,4.54879484 63.1658784,4.84668002 C62.8800428,5.25745402 62.7525172,5.75823453 62.8069606,6.25611534 L62.8069606,8.50521426 L68.4599162,8.50521426 C68.6911785,8.50521426 68.8786537,8.69317936 68.8786537,8.92504606 L68.8786537,10.4244453 C68.8786537,10.656312 68.6911785,10.8442771 68.4599162,10.8442771 L62.8069606,10.8442771 L62.8069606,13.5431958 C62.7047281,14.0999036 62.8344406,14.6742974 63.1658784,15.1325591 C63.5249506,15.4304442 63.9884679,15.5709436 64.4520006,15.5224029 L68.6991948,15.5224029 C68.9304571,15.5224029 69.1179322,15.710368 69.1179322,15.9422347 L69.1179322,17.2317181 Z" id="Shape" fill="#292F3A"></path>
                                        <path d="M81.1416792,17.2317181 C81.1785003,17.3282694 81.1785003,17.4350466 81.1416792,17.5315979 C81.0339579,17.5609074 80.9203924,17.5609074 80.8126712,17.5315979 C79.4963568,17.7341766 78.1663932,17.8344352 76.8346653,17.8314778 C76.1920035,17.8404113 75.5502444,17.7800891 74.920437,17.6515499 C74.3885155,17.5325926 73.8820645,17.3193273 73.4249461,17.0218022 C72.9472216,16.7022754 72.5811758,16.2409009 72.3781024,15.7023308 C72.121135,15.0124452 71.9992708,14.2793489 72.0191846,13.5431958 L72.0191846,6.37606728 C71.9992708,5.63991419 72.121135,4.90681794 72.3781024,4.21693232 C72.5811758,3.67836218 72.9472216,3.21698772 73.4249461,2.89746095 C73.8820645,2.59993586 74.3885155,2.38667054 74.920437,2.26771326 C75.5502444,2.13917402 76.1920035,2.07885187 76.8346653,2.08778534 C78.1663889,2.08494746 79.4963433,2.18520537 80.8126712,2.3876652 C80.9203924,2.35835567 81.0339579,2.35835567 81.1416792,2.3876652 C81.1785003,2.48421656 81.1785003,2.59099369 81.1416792,2.68754505 L81.1416792,4.03700441 C81.1416792,4.14835072 81.0975623,4.25513658 81.0190338,4.33387032 C80.9405053,4.41260405 80.8339978,4.4568362 80.7229417,4.4568362 L76.4757475,4.4568362 C76.0122149,4.40829548 75.5486976,4.54879484 75.1896253,4.84668002 C74.9037897,5.25745402 74.7762641,5.75823453 74.8307075,6.25611534 L74.8307075,8.50521426 L80.4836632,8.50521426 C80.7149255,8.50521426 80.9024006,8.69317936 80.9024006,8.92504606 L80.9024006,10.4244453 C80.9024006,10.656312 80.7149255,10.8442771 80.4836632,10.8442771 L74.8307075,10.8442771 L74.8307075,13.5431958 C74.7762641,14.0410766 74.9037897,14.5418572 75.1896253,14.9526312 C75.5486976,15.2505163 76.0122149,15.3910157 76.4757475,15.342475 L80.7229417,15.342475 C80.954204,15.342475 81.1416792,15.5304401 81.1416792,15.7623068 L81.1416792,17.2317181 Z" id="Shape" fill="#292F3A"></path>
                                        <path d="M93.5841636,3.85707649 L89.5164283,3.85707649 L89.5164283,17.381658 C89.5506397,17.4786754 89.5506397,17.5845204 89.5164283,17.6815378 C89.4308044,17.7200252 89.3328638,17.7200252 89.2472399,17.6815378 L87.9910275,17.6815378 C87.9054037,17.7200252 87.8074631,17.7200252 87.7218392,17.6815378 C87.6876278,17.5845204 87.6876278,17.4786754 87.7218392,17.381658 L87.7218392,3.85707649 L83.5344646,3.85707649 C83.43702,3.88714137 83.3328111,3.88714137 83.2353664,3.85707649 C83.1979695,3.78150357 83.1979695,3.69274553 83.2353664,3.61717261 L83.2353664,2.71753304 C83.1969794,2.63168539 83.1969794,2.53348881 83.2353664,2.44764117 C83.332131,2.41334034 83.4377001,2.41334034 83.5344646,2.44764117 L93.5841636,2.44764117 C93.843382,2.44764117 93.9729912,2.56759311 93.9729912,2.807497 L93.9729912,3.70713656 C93.9729912,3.80709652 93.843382,3.85707649 93.5841636,3.85707649 Z" id="Shape" fill="#292F3A"></path>
                                        <path d="M104.710616,17.7415138 C104.662047,17.7575337 104.609636,17.7575337 104.561067,17.7415138 L103.753502,17.7415138 L100.463422,17.7415138 C99.287282,17.8251114 98.1174417,17.5081121 97.1434319,16.8418742 C96.331473,16.0679004 95.9228149,14.9605326 96.0367687,13.8430757 L96.0367687,6.1361634 C95.9228149,5.01870652 96.331473,3.91133868 97.1434319,3.13736484 C98.1174417,2.47112701 99.287282,2.15412765 100.463422,2.23772527 L103.843231,2.23772527 L104.680706,2.23772527 C104.729275,2.22170537 104.781686,2.22170537 104.830255,2.23772527 C104.845451,2.29673364 104.845451,2.35864482 104.830255,2.41765318 L104.830255,3.46723268 C104.830255,3.64716059 104.830255,3.70713656 104.590977,3.70713656 L100.523241,3.70713656 C100.075927,3.65809783 99.6246138,3.65809783 99.1772996,3.70713656 C98.8874132,3.76337403 98.6184488,3.89820765 98.3996443,4.09698038 C98.2187523,4.27736227 98.0940547,4.50657204 98.0407265,4.75671606 C97.9117788,5.20480894 97.8512728,5.66990022 97.8612676,6.1361634 L97.8612676,9.13496195 L104.261969,9.13496195 C104.35768,9.09497797 104.465355,9.09497797 104.561067,9.13496195 C104.600947,9.23092351 104.600947,9.33888026 104.561067,9.43484181 L104.561067,10.2145294 C104.600947,10.310491 104.600947,10.4184477 104.561067,10.5144093 C104.465355,10.5543933 104.35768,10.5543933 104.261969,10.5144093 L97.8612676,10.5144093 L97.8612676,14.0529916 C97.8242173,14.3918404 97.8242173,14.7337343 97.8612676,15.0725831 C97.909052,15.3334315 98.034129,15.5737888 98.2201854,15.7623068 C98.4389899,15.9610795 98.7079543,16.0959131 98.9978407,16.1521506 C99.4451549,16.2011893 99.8964683,16.2011893 100.343782,16.1521506 L104.381608,16.1521506 C104.531157,16.1521506 104.620886,16.1521506 104.620886,16.3920545 L104.620886,17.4716219 C104.686501,17.54541 104.71895,17.6430118 104.710616,17.7415138 L104.710616,17.7415138 Z" id="Shape" fill="#292F3A"></path>
                                        <path d="M116.046437,13.7830997 C116.028364,14.2417479 115.947859,14.6957683 115.807159,15.1325591 C115.64942,15.6406297 115.372493,16.1033814 114.999593,16.4820184 C114.549235,16.9164921 114.007585,17.2443804 113.414373,17.441634 C112.596478,17.7208355 111.735779,17.8528157 110.872039,17.8314778 C110.224488,17.8674177 109.575451,17.8674177 108.9279,17.8314778 L107.4025,17.6215619 C107.295229,17.6540875 107.180762,17.6540875 107.073492,17.6215619 C107.050218,17.5432961 107.050218,17.4599237 107.073492,17.381658 L107.073492,16.4520304 C107.040198,16.3755459 107.040198,16.288611 107.073492,16.2121266 C107.151268,16.1869093 107.234993,16.1869093 107.31277,16.2121266 L107.31277,16.2121266 L108.120335,16.2121266 L110.752399,16.2121266 C111.276615,16.2239988 111.799966,16.1634544 112.30771,16.0321986 C112.661438,15.9378985 112.988875,15.7634933 113.264824,15.5224029 C113.500736,15.3127123 113.676311,15.0434841 113.773291,14.7427153 C113.825995,14.4049054 113.825995,14.0609336 113.773291,13.7231237 C113.817848,13.4852996 113.817848,13.2412362 113.773291,13.0034121 C113.674763,12.7687953 113.532663,12.5550884 113.354553,12.3736644 C113.192146,12.1496787 113.012111,11.93909 112.816177,11.7439167 L111.619784,10.9642291 L109.585916,9.73472167 C108.774646,9.26956118 108.046754,8.67153512 107.432409,7.96543052 C106.94523,7.35389112 106.690798,6.58859844 106.714574,5.80629555 C106.67107,4.76386402 107.140558,3.76639606 107.970786,3.13736484 C109.089223,2.47166741 110.38135,2.15823915 111.679604,2.23772527 L112.636718,2.23772527 L113.653652,2.23772527 L114.580856,2.23772527 L115.298692,2.23772527 C115.53797,2.23772527 115.657609,2.3876652 115.657609,2.5975811 L115.657609,3.49722066 C115.657609,3.71713256 115.53797,3.82708851 115.298692,3.82708851 L115.298692,3.82708851 L113.623742,3.82708851 L111.709513,3.82708851 C110.899433,3.76998574 110.087815,3.91419262 109.346638,4.2469203 C108.835019,4.59095177 108.557991,5.19274761 108.628802,5.80629555 C108.58032,6.03363413 108.58032,6.26868065 108.628802,6.49601922 C108.733813,6.71808815 108.875372,6.92084272 109.04754,7.09577893 C109.264576,7.3210351 109.505252,7.52212185 109.765375,7.69553865 L110.782309,8.35527433 L112.696537,9.49481778 C113.229813,9.80697599 113.739636,10.157769 114.221938,10.5443973 C114.597053,10.8459884 114.938067,11.1878938 115.238872,11.5639888 C115.492142,11.8751104 115.684909,12.2311356 115.807159,12.6135683 C115.944992,12.9891675 116.025655,13.3834274 116.046437,13.7830997 Z" id="Shape" fill="#292F3A"></path>
                                        <path d="M127.980455,3.85707649 L123.912719,3.85707649 L123.912719,17.381658 C123.946931,17.4786754 123.946931,17.5845204 123.912719,17.6815378 C123.827095,17.7200252 123.729155,17.7200252 123.643531,17.6815378 L122.387319,17.6815378 C122.301695,17.7200252 122.203754,17.7200252 122.11813,17.6815378 C122.083919,17.5845204 122.083919,17.4786754 122.11813,17.381658 L122.11813,3.85707649 L117.960665,3.85707649 C117.863221,3.88714137 117.759012,3.88714137 117.661567,3.85707649 C117.62417,3.78150357 117.62417,3.69274553 117.661567,3.61717261 L117.661567,2.71753304 C117.62318,2.63168539 117.62318,2.53348881 117.661567,2.44764117 C117.758332,2.41334034 117.863901,2.41334034 117.960665,2.44764117 L128.010364,2.44764117 C128.279553,2.44764117 128.399192,2.44764117 128.399192,2.807497 L128.399192,3.70713656 C128.399192,3.76711254 128.249643,3.85707649 127.980455,3.85707649 Z" id="Shape" fill="#292F3A"></path>
                                        <path d="M50.0055584,5.53640368 C50.6095933,4.89847531 51.4625198,4.55860578 52.3385242,4.60677613 C53.5589211,4.57703158 54.7591814,4.92235423 55.7781533,5.59637966 C55.9241604,5.72288266 56.1406131,5.72288266 56.2866202,5.59637966 L57.0642755,4.51681217 C57.0642755,4.33688426 57.2437344,4.12696836 57.0642755,3.94704045 C55.6217634,2.8217589 53.8368083,2.22874875 52.0095162,2.26771326 C51.3280625,2.26742049 50.6511461,2.37884646 50.0055584,2.5975811 C49.3529908,2.8306968 48.7457691,3.17568836 48.2109693,3.61717261 C47.5875185,4.15701459 47.1136132,4.84907179 46.8351176,5.62636764 C46.4823047,6.5858886 46.3099048,7.60265606 46.3266507,8.6251662 L46.3266507,11.6239648 C46.3118031,12.4971028 46.4328982,13.3672191 46.6855685,14.2029315 C46.8848718,14.868494 47.2097929,15.4894936 47.6426827,16.0321986 C48.385579,16.913678 49.3755294,17.5509917 50.4841155,17.8614658 C51.0441675,17.9835325 51.6158478,18.0438666 52.1889751,18.0413937 C53.6729404,18.0958669 55.1487342,17.7978817 56.4959889,17.1717421 C56.7365533,17.0553186 56.8881477,16.8097954 56.8848166,16.5419944 L56.8848166,9.13496195 C56.9246963,9.0390004 56.9246963,8.93104365 56.8848166,8.8350821 C56.7891051,8.79509812 56.6814298,8.79509812 56.5857184,8.8350821 L52.2487947,8.8350821 C52.0175324,8.8350821 51.8300573,9.0230472 51.8300573,9.2549139 L51.8300573,10.7543132 C51.8300573,10.9861799 52.0175324,11.174145 52.2487947,11.174145 L53.9835642,11.174145 L53.9835642,15.1325591 C53.4250016,15.3215106 52.8382032,15.4128035 52.2487947,15.4024509 C51.4126216,15.4400371 50.5989977,15.1246136 50.0055584,14.5327994 C49.3968108,13.657739 49.111248,12.5973349 49.1979933,11.5340008 L49.1979933,8.53520224 C49.1234478,7.47301992 49.407931,6.41662504 50.0055584,5.53640368 L50.0055584,5.53640368 Z" id="Shape" fill="#292F3A"></path>
                                    </g>
                                </g>
                            </g>
                        </g>
                        <path d="M50.688,26.232 L51.312,26.232 C52.824,27.816 54.564,29.052 56.532,29.964 L56.1,30.732 C54.108,29.772 52.416,28.536 51,27.012 C49.692,28.464 47.976,29.724 45.852,30.792 L45.432,30.036 C47.544,29.016 49.296,27.744 50.688,26.232 Z M47.652,30.024 L54.348,30.024 L54.348,30.852 L51.444,30.852 L51.444,32.94 L54.912,32.94 L54.912,33.768 L51.444,33.768 L51.444,35.988 L56.004,35.988 L56.004,36.84 L46.008,36.84 L46.008,35.988 L50.556,35.988 L50.556,33.768 L47.076,33.768 L47.076,32.94 L50.556,32.94 L50.556,30.852 L47.652,30.852 L47.652,30.024 Z M63.396,28.272 L66.12,28.272 L66.12,26.22 L66.96,26.22 L66.96,28.272 L69,28.272 C68.616,27.816 68.136,27.348 67.536,26.856 L68.04,26.376 C68.64,26.844 69.156,27.312 69.564,27.78 L69.084,28.272 L69.804,28.272 L69.804,29.112 L66.96,29.112 L66.96,30.264 C67.14,30.84 67.356,31.392 67.596,31.92 C68.148,31.332 68.64,30.672 69.084,29.94 L69.732,30.42 C69.156,31.308 68.568,32.052 67.98,32.652 C68.58,33.756 69.348,34.728 70.284,35.556 L69.72,36.228 C68.544,35.1 67.62,33.732 66.96,32.136 L66.96,36.096 C66.96,36.756 66.612,37.092 65.94,37.092 L64.62,37.092 L64.452,36.276 C64.86,36.312 65.268,36.336 65.652,36.336 C65.964,36.336 66.12,36.18 66.12,35.892 L66.12,32.892 C65.328,34.056 64.404,35.028 63.36,35.82 L62.916,35.076 C64.128,34.26 65.196,33.132 66.12,31.716 L66.12,29.112 L63.396,29.112 L63.396,28.272 Z M64.092,30.06 C64.644,30.84 65.064,31.524 65.364,32.1 L64.764,32.52 C64.428,31.908 63.984,31.224 63.42,30.48 L64.092,30.06 Z M59.556,30.624 L60.912,30.624 L60.912,27.816 L59.412,27.816 L59.412,27.012 L63.216,27.012 L63.216,27.816 L61.8,27.816 L61.8,30.624 L62.976,30.624 L62.976,31.44 L61.8,31.44 L61.8,33.888 C62.292,33.684 62.772,33.468 63.228,33.228 L63.228,34.068 C62.064,34.668 60.804,35.16 59.46,35.568 L59.232,34.704 C59.808,34.572 60.36,34.416 60.912,34.224 L60.912,31.44 L59.556,31.44 L59.556,30.624 Z M73.2959999,27.624 L73.2959999,28.452 L83.9159999,28.452 L83.9159999,27.624 L79.1879999,27.624 C78.9719999,27.072 78.7319999,26.568 78.4919999,26.112 L77.5319999,26.28 C77.7959999,26.688 78.0359999,27.132 78.2519999,27.624 L73.2959999,27.624 Z M80.4959999,28.812 C81.8279999,29.868 82.9439999,30.912 83.8439999,31.968 L83.2079999,32.604 C82.4159999,31.596 81.3119999,30.528 79.9079999,29.376 L80.4959999,28.812 Z M80.6159999,31.056 L81.4079999,31.404 C80.8319999,32.508 80.1359999,33.456 79.3079999,34.26 C80.6039999,35.196 82.1759999,35.892 84.0479999,36.372 L83.5079999,37.176 C81.5639999,36.624 79.9439999,35.856 78.6479999,34.848 C77.3039999,35.928 75.6719999,36.72 73.7519999,37.224 L73.2239999,36.432 C75.1199999,35.952 76.6919999,35.232 77.9519999,34.272 C77.0759999,33.48 76.3559999,32.568 75.7919999,31.56 L76.5359999,31.14 C77.0639999,32.124 77.7599999,32.976 78.6119999,33.708 C79.4279999,32.94 80.0999999,32.064 80.6159999,31.056 Z M76.6319999,28.824 L77.2559999,29.376 C76.3439999,30.564 75.2159999,31.608 73.8719999,32.496 L73.3199999,31.764 C74.6279999,30.924 75.7319999,29.952 76.6319999,28.824 Z M87.2879999,26.712 L97.4879999,26.712 L97.4879999,27.552 L91.1759999,27.552 L90.6839999,29.532 L95.8679999,29.532 L94.9079999,35.94 L97.7999999,35.94 L97.7999999,36.78 L87.0719999,36.78 L87.0719999,35.94 L94.0559999,35.94 L94.3919999,33.828 L88.7519999,33.828 L90.2999999,27.552 L87.2879999,27.552 L87.2879999,26.712 Z M94.5239999,33.024 L94.9439999,30.336 L90.4799999,30.336 L89.8079999,33.024 L94.5239999,33.024 Z M111.18,27.372 L111.18,29.952 L110.292,29.952 L110.292,28.212 L102.096,28.212 L102.096,29.94 L101.208,29.94 L101.208,27.372 L105.768,27.372 C105.6,26.964 105.42,26.604 105.216,26.268 L106.176,26.1 C106.368,26.484 106.548,26.904 106.716,27.372 L111.18,27.372 Z M100.92,30.708 L104.28,30.708 C104.64,30.048 104.988,29.4 105.312,28.752 L106.2,29.016 C105.888,29.616 105.588,30.18 105.3,30.708 L111.504,30.708 L111.504,31.548 L109.14,31.548 C108.648,32.82 108.084,33.816 107.448,34.56 C108.684,35.088 109.944,35.712 111.216,36.432 L110.64,37.188 C109.368,36.444 108.096,35.772 106.824,35.196 C105.48,36.396 103.704,37.02 101.472,37.092 L100.968,36.288 C103.008,36.276 104.676,35.784 105.948,34.812 C104.82,34.332 103.704,33.912 102.588,33.552 C103.02,32.88 103.428,32.208 103.812,31.548 L100.92,31.548 L100.92,30.708 Z M104.832,31.548 C104.472,32.172 104.136,32.724 103.824,33.204 C104.736,33.468 105.66,33.804 106.608,34.2 C107.256,33.492 107.784,32.604 108.192,31.548 L104.832,31.548 Z M119.688,26.232 L120.312,26.232 C121.824,27.816 123.564,29.052 125.532,29.964 L125.1,30.732 C123.108,29.772 121.416,28.536 120,27.012 C118.692,28.464 116.976,29.724 114.852,30.792 L114.432,30.036 C116.544,29.016 118.296,27.744 119.688,26.232 Z M116.652,30.024 L123.348,30.024 L123.348,30.852 L120.444,30.852 L120.444,32.94 L123.912,32.94 L123.912,33.768 L120.444,33.768 L120.444,35.988 L125.004,35.988 L125.004,36.84 L115.008,36.84 L115.008,35.988 L119.556,35.988 L119.556,33.768 L116.076,33.768 L116.076,32.94 L119.556,32.94 L119.556,30.852 L116.652,30.852 L116.652,30.024 Z M132.948,30.816 L130.392,30.816 L130.392,35.772 C130.392,36.048 130.536,36.192 130.848,36.192 L133.14,36.192 C133.548,36.192 133.812,36.084 133.908,35.892 C134.016,35.664 134.1,35.22 134.148,34.56 L134.964,34.824 C134.88,35.844 134.724,36.468 134.508,36.708 C134.316,36.9 133.932,36.996 133.368,36.996 L130.512,36.996 C129.84,36.996 129.516,36.684 129.516,36.072 L129.516,30.048 L133.788,30.048 L133.788,33.24 C133.776,33.888 133.44,34.224 132.78,34.248 C132.324,34.248 131.88,34.236 131.46,34.212 L131.244,33.396 C131.7,33.444 132.108,33.468 132.468,33.468 C132.78,33.468 132.948,33.3 132.948,32.976 L132.948,30.816 Z M131.424,26.304 L132.06,26.304 C133.104,27.408 134.112,28.572 135.072,29.796 L134.508,30.396 C133.476,29.028 132.576,27.936 131.808,27.12 C130.92,28.44 129.9,29.652 128.724,30.756 L128.22,30.06 C129.396,28.992 130.464,27.744 131.424,26.304 Z M135.78,27.252 L136.62,27.252 L136.62,34.728 L135.78,34.728 L135.78,27.252 Z M137.784,37.092 L135.924,37.092 L135.732,36.264 C136.344,36.3 136.932,36.324 137.484,36.324 C137.784,36.324 137.94,36.144 137.94,35.784 L137.94,26.232 L138.804,26.232 L138.804,36 C138.804,36.72 138.456,37.092 137.784,37.092 Z M147.24,26.7 L152.928,26.7 L152.928,27.516 L150.54,27.516 C150.48,27.972 150.408,28.404 150.312,28.836 L152.556,28.836 L152.556,34.5 L151.716,34.5 L151.716,29.628 L148.608,29.628 L148.608,34.596 L147.756,34.596 L147.756,28.836 L149.472,28.836 C149.568,28.404 149.64,27.972 149.688,27.516 L147.24,27.516 L147.24,26.7 Z M151.056,34.536 C151.872,35.232 152.556,35.94 153.12,36.636 L152.508,37.248 C152.016,36.576 151.332,35.856 150.468,35.1 L151.056,34.536 Z M149.736,30.42 L150.552,30.42 L150.552,32.484 C150.528,33.768 150.276,34.8 149.808,35.568 C149.352,36.276 148.608,36.84 147.576,37.248 L147.12,36.516 C148.092,36.144 148.776,35.64 149.16,35.016 C149.52,34.368 149.712,33.528 149.736,32.484 L149.736,30.42 Z M144.456,26.304 L145.104,26.304 C145.92,27.252 146.712,28.26 147.48,29.328 L146.904,29.94 C146.124,28.764 145.44,27.828 144.864,27.132 C144.18,28.356 143.388,29.472 142.488,30.48 L141.996,29.784 C142.896,28.8 143.712,27.636 144.456,26.304 Z M142.68,31.548 L142.68,32.352 L146.052,32.352 C145.596,33.24 145.128,34.02 144.636,34.68 C144.264,34.356 143.88,34.032 143.472,33.708 L142.896,34.26 C144.156,35.28 145.14,36.24 145.86,37.14 L146.484,36.528 C146.1,36.084 145.668,35.64 145.2,35.196 C145.872,34.332 146.46,33.36 146.976,32.268 L146.976,31.548 L142.68,31.548 Z M144.708,28.908 C145.236,29.616 145.632,30.228 145.92,30.756 L145.296,31.2 C144.996,30.624 144.588,29.988 144.084,29.292 L144.708,28.908 Z M157.152,27.444 L160.44,27.444 L160.44,26.172 L161.328,26.172 L161.328,27.444 L164.16,27.444 L164.16,28.248 L161.328,28.248 L161.328,29.676 L162.84,29.676 C163.968,28.872 164.964,27.96 165.816,26.952 L166.476,27.432 C165.768,28.272 165.012,29.028 164.208,29.676 L166.776,29.676 L166.776,30.492 L163.116,30.492 C162.936,30.612 162.756,30.72 162.576,30.84 C162.024,31.176 161.388,31.5 160.692,31.824 L165.228,31.824 L165.228,37.224 L164.364,37.224 L164.364,36.684 L159.168,36.684 L159.168,37.224 L158.292,37.224 L158.292,32.808 C157.644,33.048 156.972,33.276 156.276,33.504 L155.916,32.7 C157.968,32.22 159.84,31.476 161.544,30.492 L156.084,30.492 L156.084,29.676 L160.44,29.676 L160.44,28.248 L157.152,28.248 L157.152,27.444 Z M159.168,34.608 L159.168,35.916 L164.364,35.916 L164.364,34.608 L159.168,34.608 Z M164.364,33.84 L164.364,32.58 L159.168,32.58 L159.168,33.84 L164.364,33.84 Z" id="全球交互安全创领者" fill="#292F3A" opacity="0.600000024"></path>
                        <path d="M137.675,11.098 L137.675,19.632 L136.434,19.632 L136.434,10.962 C135.873,12.696 135.125,14.26 134.207,15.654 L133.68,14.311 C134.921,12.645 135.805,10.758 136.349,8.616 L133.952,8.616 L133.952,7.443 L136.434,7.443 L136.434,4.128 L137.675,4.128 L137.675,7.443 L139.715,7.443 L139.715,8.616 L137.675,8.616 L137.675,9.738 C138.423,10.571 139.188,11.506 139.97,12.526 L139.239,13.597 C138.627,12.577 138.117,11.744 137.675,11.098 Z M141.262,5.981 L139.324,5.981 L139.324,4.808 L147.297,4.808 L147.297,5.59 C146.957,7.103 146.634,8.412 146.294,9.5 L148.504,9.5 L148.504,10.18 C148.147,12.509 147.365,14.481 146.175,16.079 C147.076,17.014 148.113,17.847 149.303,18.595 L148.521,19.632 C147.314,18.85 146.277,17.983 145.393,17.014 C144.373,18.085 143.132,18.969 141.67,19.666 L140.99,18.544 C142.418,17.847 143.608,16.997 144.56,15.994 C143.54,14.634 142.775,13.104 142.248,11.421 C141.823,14.974 140.82,17.694 139.239,19.581 L138.304,18.765 C140.242,16.453 141.228,12.73 141.262,7.63 L141.262,5.981 Z M145.308,15.093 C146.277,13.801 146.94,12.288 147.28,10.571 L144.832,10.571 C145.172,9.534 145.563,8.004 146.005,5.981 L142.469,5.981 L142.469,7.63 C142.469,7.868 142.452,8.089 142.452,8.31 C142.86,10.928 143.812,13.189 145.308,15.093 Z M159.061,9.109 C158.449,9.789 157.803,10.401 157.123,10.928 L156.477,9.942 C158.381,8.463 159.86,6.542 160.88,4.179 L162.002,4.179 C162.852,6.355 164.348,8.242 166.456,9.874 L165.793,10.894 C165.062,10.333 164.416,9.738 163.838,9.109 L163.838,10.163 L159.061,10.163 L159.061,9.109 Z M163.787,9.041 C162.801,7.919 162.019,6.695 161.441,5.369 C160.761,6.797 159.996,8.021 159.112,9.041 L163.787,9.041 Z M156.97,17.932 L162.495,17.932 C163.141,16.13 163.719,13.886 164.229,11.217 L165.402,11.506 C164.926,13.92 164.365,16.062 163.685,17.932 L166.252,17.932 L166.252,19.105 L156.97,19.105 L156.97,17.932 Z M158.534,11.71 C159.078,13.121 159.554,14.753 159.996,16.589 L158.942,16.844 C158.568,15.178 158.075,13.597 157.48,12.067 L158.534,11.71 Z M161.152,11.217 C161.611,12.56 162.019,14.107 162.393,15.858 L161.322,16.113 C161.016,14.532 160.608,13.002 160.098,11.54 L161.152,11.217 Z M155.066,6.015 L150.952,6.015 L150.952,4.893 L156.29,4.893 L155.474,11.897 L156.528,11.897 C156.528,15.773 156.358,18 156.035,18.595 C155.695,19.173 154.998,19.479 153.927,19.479 C153.536,19.479 153.128,19.462 152.72,19.428 L152.397,18.34 C152.992,18.408 153.417,18.442 153.655,18.442 C154.471,18.442 154.964,18.17 155.134,17.66 C155.304,17.116 155.406,15.569 155.406,12.985 L151.071,12.985 L151.87,7.154 L152.992,7.222 L152.312,11.897 L154.318,11.897 L155.066,6.015 Z M154.437,14.498 L154.437,15.603 C153.315,16.028 152.057,16.368 150.646,16.64 L150.493,15.484 C151.989,15.229 153.315,14.906 154.437,14.498 Z" id="极验" fill="#292F3A"></path>
                    </g>
                </g>
            </g>
        </g>
    </g>
</svg>